<?xml version="1.0" encoding="UTF-8" standalone="no"?>
<!-- Created with Inkscape (http://www.inkscape.org/) -->

<svg
   width="496px"
   height="483px"
   viewBox="0 0 496 483"
   version="1.1"
   id="SVGRoot"
   sodipodi:docname="itch.io.svg"
   inkscape:version="1.2.1 (9c6d41e410, 2022-07-14)"
   xmlns:inkscape="http://www.inkscape.org/namespaces/inkscape"
   xmlns:sodipodi="http://sodipodi.sourceforge.net/DTD/sodipodi-0.dtd"
   xmlns="http://www.w3.org/2000/svg"
   xmlns:svg="http://www.w3.org/2000/svg">
  <sodipodi:namedview
     id="namedview9512"
     pagecolor="#505050"
     bordercolor="#ffffff"
     borderopacity="1"
     inkscape:showpageshadow="0"
     inkscape:pageopacity="0"
     inkscape:pagecheckerboard="1"
     inkscape:deskcolor="#505050"
     inkscape:document-units="px"
     showgrid="false"
     inkscape:zoom="0.2481917"
     inkscape:cx="1154.3496"
     inkscape:cy="-209.51546"
     inkscape:window-width="1920"
     inkscape:window-height="986"
     inkscape:window-x="-11"
     inkscape:window-y="-11"
     inkscape:window-maximized="1"
     inkscape:current-layer="layer1" />
  <defs
     id="defs9507" />
  <g
     inkscape:label="Capa 1"
     inkscape:groupmode="layer"
     id="layer1">
    <path
       d="M 65.106785,4.2305841 C 43.471487,18.136297 0.8457903,71.144309 0.4415063,85.045645 v 23.010615 c 0,29.16809 25.1869197,54.80449 48.0552187,54.80449 27.459,0 50.33743,-24.63423 50.33948,-53.87233 0,29.2381 22.094155,53.87233 49.555145,53.87233 27.46302,0 48.84767,-24.63423 48.84767,-53.87233 0,29.2381 23.49305,53.87233 50.9539,53.87233 h 0.4972 c 27.46317,0 50.95596,-24.63423 50.95596,-53.87233 0,29.2381 21.38688,53.87233 48.84581,53.87233 27.46107,0 49.55511,-24.63423 49.55511,-53.87233 0,29.2381 22.88263,53.87233 50.33942,53.87233 22.86841,0 48.05509,-25.63203 48.05509,-54.80449 V 85.045645 C 496.03738,71.14212 453.41173,18.131921 431.78049,4.2305841 364.53591,1.6748211 317.91793,1.2328141 248.43934,1.2437551 178.96335,1.2503551 84.243565,2.4253581 65.102725,4.2305841 Z M 196.89128,149.12352 a 56.650344,61.322993 0 0 1 -9.66237,13.46808 c -10.36582,10.9714 -24.57441,17.77218 -40.2384,17.77218 a 57.574097,62.322979 0 0 1 -40.32332,-17.78093 c -3.75582,-3.98243 -6.61004,-8.24058 -9.223745,-13.19894 l -0.0113,0.009 c -2.61166,4.96711 -6.25023,9.22307 -10.01409,13.20988 a 57.61048,62.362366 0 0 1 -40.32336,17.7678 c -1.88802,0 -3.852824,-0.56454 -5.441682,-1.15534 -2.207393,24.88368 -3.139265,48.66452 -3.468752,66.00345 l -0.0037,0.0984 c -0.04045,8.80513 -0.08086,16.04573 -0.121212,26.10466 0.424504,52.20934 -4.776619,169.21864 21.265356,197.96878 40.35565,10.18586 114.614575,14.82474 189.113955,14.85319 h 0.0113 c 74.49754,-0.0285 148.75624,-4.66733 189.11196,-14.85319 26.04191,-28.75233 20.84069,-145.76163 21.26513,-197.97096 -0.0415,-10.05675 -0.0799,-17.29735 -0.11983,-26.10467 l -0.005,-0.0985 c -0.32746,-17.3433 -1.25913,-41.12196 -3.46671,-66.00564 -1.58896,0.59081 -3.55173,1.15535 -5.4416,1.15535 a 57.61048,62.362366 0 0 1 -40.32366,-17.7678 c -3.76383,-3.98682 -7.40254,-8.24059 -10.01602,-13.20989 l -0.0113,-0.009 c -2.61579,4.95835 -5.46804,9.21868 -9.2238,13.19893 a 57.570051,62.318602 0 0 1 -40.32129,17.77875 c -15.66217,0 -29.87232,-6.80515 -40.23826,-17.77437 a 56.650344,61.322993 0 0 1 -9.66234,-13.46808 56.579577,61.246407 0 0 1 -9.57363,13.46808 57.590295,62.340484 0 0 1 -40.32723,17.77656 c -0.54607,0 -1.09183,-0.0262 -1.63749,-0.0437 h -0.0132 c -0.54613,0.0175 -1.09151,0.0437 -1.64365,0.0437 a 57.590295,62.340484 0 0 1 -40.32742,-17.77437 56.583609,61.250784 0 0 1 -9.57339,-13.46808 z m -41.41081,57.96418 -0.004,0.0219 h 0.0303 c 16.39977,0.0372 30.96817,0 49.01949,21.32574 14.20674,-1.61267 29.05212,-2.41791 43.90928,-2.39384 h 0.0113 c 14.85683,-0.0219 29.70221,0.78117 43.9109,2.39384 18.05123,-21.32793 32.61952,-21.29073 49.0194,-21.32574 h 0.0263 l -0.004,-0.0219 c 7.74793,0 38.74247,0 60.33907,65.65991 l 23.19828,90.07532 c 17.18978,67.01001 -5.50441,68.64894 -33.81261,68.70802 -41.98052,-1.69145 -65.22503,-34.69317 -65.22503,-67.69052 -23.23829,4.12248 -50.34747,6.18372 -77.45655,6.18591 h -0.0113 c -27.11083,0 -54.22039,-2.06343 -77.45676,-6.18591 0,32.99735 -23.24634,65.99907 -65.22518,67.69052 -28.308005,-0.0591 -51.000485,-1.69582 -33.810315,-68.70802 l 23.20651,-90.07313 c 21.596885,-65.65992 52.591365,-65.65992 60.339435,-65.65992 z m 92.95499,51.60102 v 0.0131 c -0.0377,0.0437 -44.19454,43.93812 -52.13246,59.5506 l 28.91467,-1.25382 v 27.29502 c 0,1.27788 11.60279,0.75711 23.21779,0.17506 h 0.0113 c 11.61064,0.58205 23.21583,1.10282 23.21583,-0.17506 v -27.29501 l 28.91465,1.25382 c -7.93931,-15.61248 -52.13171,-59.5506 -52.13171,-59.5506 v -0.0131 l -0.005,0.004 z"
       color="#000000"
       id="path1216"
       style="stroke-width:2.10316" />
  </g>
</svg>
